<svg width="25" height="24" fill="none" xmlns="http://www.w3.org/2000/svg"><path d="M13.526 7a.753.753 0 00-.756-.75.753.753 0 00-.755.75v5c0 .259.134.499.355.636l3.022 1.875a.76.76 0 001.042-.238.747.747 0 00-.24-1.034l-2.668-1.655V7z" fill="#464646"/><path fill-rule="evenodd" clip-rule="evenodd" d="M12.77 3.25c-4.869 0-8.816 3.918-8.816 8.75s3.947 8.75 8.816 8.75c4.87 0 8.816-3.918 8.816-8.75S17.64 3.25 12.77 3.25zM5.465 12c0-4.004 3.27-7.25 7.305-7.25s7.305 3.246 7.305 7.25-3.27 7.25-7.305 7.25c-4.034 0-7.305-3.246-7.305-7.25z" fill="#464646"/></svg>