<svg width="19" height="18" fill="none" xmlns="http://www.w3.org/2000/svg"><path fill-rule="evenodd" clip-rule="evenodd" d="M2.975 6.801a17.287 17.287 0 008.99 8.663l.012.005.77.34c.98.434 2.131.126 2.76-.737l1.284-1.763a.249.249 0 00-.047-.341l-2.241-1.795a.253.253 0 00-.36.046l-.873 1.168a.76.76 0 01-.919.237 13.439 13.439 0 01-6.72-6.67.747.747 0 01.238-.912l1.178-.866a.249.249 0 00.046-.358L5.284 1.593a.253.253 0 00-.343-.046l-1.787 1.28a2.24 2.24 0 00-.737 2.756L2.975 6.8v.001zm8.393 10.041A18.794 18.794 0 011.6 7.426v-.002l-.559-1.22A3.733 3.733 0 012.27 1.61L4.056.331a1.772 1.772 0 012.404.32l1.81 2.225a1.74 1.74 0 01-.323 2.505l-.674.496a11.937 11.937 0 005.156 5.118l.5-.67a1.772 1.772 0 012.524-.32l2.241 1.795a1.74 1.74 0 01.322 2.387l-1.284 1.764a3.796 3.796 0 01-4.6 1.229l-.763-.338z" fill="#464646"/></svg>