<svg width="80" height="80" fill="none" xmlns="http://www.w3.org/2000/svg"><path fill-rule="evenodd" clip-rule="evenodd" d="M40 10c-8.148 0-9.168.034-12.368.18-3.194.146-5.376.654-7.284 1.396-2 .752-3.814 1.932-5.314 3.46a14.716 14.716 0 00-3.46 5.312c-.738 1.908-1.248 4.092-1.394 7.286C10.036 30.832 10 31.85 10 40c0 8.15.034 9.168.18 12.368.146 3.194.654 5.376 1.396 7.284.752 2 1.932 3.814 3.46 5.314a14.718 14.718 0 005.312 3.46c1.908.74 4.09 1.248 7.284 1.394 3.2.146 4.22.18 12.368.18s9.168-.034 12.368-.18c3.194-.146 5.376-.654 7.284-1.396 2-.752 3.814-1.932 5.314-3.46a14.716 14.716 0 003.46-5.312c.74-1.908 1.248-4.09 1.394-7.284.146-3.2.18-4.22.18-12.368s-.034-9.168-.18-12.368c-.146-3.194-.654-5.376-1.396-7.284a14.706 14.706 0 00-3.46-5.314 14.716 14.716 0 00-5.312-3.46c-1.908-.738-4.092-1.248-7.286-1.394C49.168 10.036 48.15 10 40 10zm0 5.406c8.01 0 8.96.03 12.124.174 2.924.134 4.512.62 5.57 1.034 1.4.542 2.4 1.194 3.45 2.242 1.05 1.05 1.7 2.05 2.242 3.45.412 1.058.9 2.646 1.034 5.57.144 3.164.174 4.114.174 12.124 0 8.01-.03 8.96-.174 12.124-.134 2.924-.62 4.512-1.034 5.57a9.29 9.29 0 01-2.242 3.45 9.283 9.283 0 01-3.45 2.242c-1.058.412-2.646.9-5.57 1.034-3.164.144-4.112.174-12.124.174s-8.96-.03-12.124-.174c-2.924-.134-4.512-.62-5.57-1.034a9.29 9.29 0 01-3.45-2.242 9.297 9.297 0 01-2.242-3.45c-.412-1.058-.9-2.646-1.034-5.57-.144-3.164-.174-4.114-.174-12.124 0-8.01.03-8.96.174-12.124.134-2.924.62-4.512 1.034-5.57.542-1.4 1.194-2.4 2.242-3.45a9.287 9.287 0 013.45-2.242c1.058-.412 2.646-.9 5.57-1.034 3.164-.144 4.114-.174 12.124-.174z" fill="#fff"/><path fill-rule="evenodd" clip-rule="evenodd" d="M40 50.01a10.01 10.01 0 110-20.022 10.01 10.01 0 010 20.022zm0-25.43a15.42 15.42 0 100 30.84 15.42 15.42 0 000-30.84zm19.906-.28a3.645 3.645 0 11-7.29 0 3.645 3.645 0 017.29 0" fill="#fff"/></svg>