<svg width="364" height="70" fill="none" xmlns="http://www.w3.org/2000/svg"><g clip-path="url(#clip0_8_237)"><path d="M85.703 15.896c-.73.23-1.45.648-2.098 1.22a6.238 6.238 0 00-1.837 1.872.83.83 0 00-.083.333.54.54 0 00.067.289c.048.08.117.138.202.168a.46.46 0 00.28.003c.69-.33 1.35-.808 1.938-1.401a10.002 10.002 0 001.806-1.741.713.713 0 00.132-.28.492.492 0 00-.013-.274.305.305 0 00-.153-.173.345.345 0 00-.241-.016zm14.458 5.241a.735.735 0 00.373-.317.562.562 0 00.036-.443.923.923 0 00-.313-.427 1.5 1.5 0 00-.56-.275c-5.284-.599-10.436-.09-14.83 1.461a.705.705 0 00-.402.357.574.574 0 00.028.5c.087.169.244.322.448.436.205.113.444.18.683.191a40.735 40.735 0 007.437-.427 39.647 39.647 0 007.1-1.056zm-.005 5.356a30.925 30.925 0 00-6.256-.738c-2.081-.142-4.098-.092-5.967.15-.245.038-.44.122-.557.242a.381.381 0 00-.09.42c.057.155.201.308.41.438.21.13.473.23.753.284 2.097.309 4.187.469 6.214.475 2.055.138 4.053.103 5.927-.102.208-.032.373-.103.472-.203a.323.323 0 00.078-.356c-.049-.131-.17-.26-.347-.37a1.931 1.931 0 00-.637-.24zm3.148 7.892c-1.927-.88-4.14-1.696-6.505-2.397a30.848 30.848 0 00-6.024-1.324 1.092 1.092 0 00-.262.01c-.07.014-.118.036-.14.067-.022.03-.018.067.012.107a.51.51 0 00.16.128c1.622.724 3.507 1.38 5.502 1.917a191.74 191.74 0 006.626 1.887c1.025.273 1.307-.085.631-.395zM94.1 35.793a23.635 23.635 0 00-1.57-.784.53.53 0 00-.207-.043.397.397 0 00-.187.044.217.217 0 00-.105.115.192.192 0 00.01.149c.08.245.209.486.383.715.205.234.461.447.756.628.526.417 1.227.695 1.951.775a.755.755 0 00.303-.05.45.45 0 00.205-.156.32.32 0 00.055-.222.442.442 0 00-.108-.232c-.31-.404-1.015-.678-1.487-.94zm9.54-7.687c.564.047 1.133.084 1.704.091.57.007 1.34-.186 1.304-.723-.06-1.07-2.245-.874-3.083-.852a.952.952 0 00-.548.241.604.604 0 00-.197.472.732.732 0 00.245.488c.15.14.353.24.575.283zM22.571 40.675c.328.022.612-.022.797-.121.185-.1.258-.249.203-.417-.054-.168-.232-.344-.498-.492a2.824 2.824 0 00-.936-.309 145.324 145.324 0 00-8.965-1.104c-2.694-.282-5.785-.642-8.208-.46a.722.722 0 00-.382.108c-.084.062-.114.144-.085.236.028.09.113.186.243.272.13.086.297.157.478.205 2.725.722 5.797 1.022 8.498 1.32 2.988.35 5.946.605 8.855.762zm-8.161 3.521c3.47.125 6.263-.731 9.405-1.274a.236.236 0 00.15-.107.171.171 0 00-.002-.164.337.337 0 00-.153-.14.475.475 0 00-.229-.05c-3.301.226-6.527.096-9.546.998-.472.125-.135.721.375.737zm11.378.729c-4.124.791-8.043 1.75-11.727 2.869-3.664 1.02-8.296 1.884-10.836 3.544a.391.391 0 00-.12.42c.05.156.185.316.392.46.207.143.477.265.777.35.3.085.616.13.912.13 4.429-.392 8.056-1.936 11.567-3.047 3.76-1.075 7.282-2.311 10.542-3.698.756-.295-.504-1.185-1.507-1.028zm.895 2.267c-1.932 1.157-3.49 2.597-4.6 4.25a.208.208 0 00-.005.192.39.39 0 00.166.172.587.587 0 00.264.076.445.445 0 00.244-.054c2.009-1.112 3.52-2.613 4.4-4.372a.139.139 0 00.034-.144.255.255 0 00-.123-.136.398.398 0 00-.208-.05.256.256 0 00-.172.066zm2.793 2.342c-.728.519-1.587 1.336-1.471 2.18a.188.188 0 00.05.095c.026.03.062.054.104.073a.385.385 0 00.133.031.317.317 0 00.127-.017c.897-.437 1.174-1.494 1.215-2.287a.07.07 0 00-.018-.037.12.12 0 00-.04-.03.151.151 0 00-.05-.013.13.13 0 00-.05.005zM6.72 34.266c1.939 1.33 5.925 2.45 8.217 1.948a.836.836 0 00.418-.193.492.492 0 00.168-.346.602.602 0 00-.137-.389 1.085 1.085 0 00-.397-.309 15.222 15.222 0 00-3.746-1.175 24.491 24.491 0 00-3.845-.754 1.271 1.271 0 00-.57.079.712.712 0 00-.365.301.535.535 0 00-.04.426.878.878 0 00.297.412z" fill="#DA2D57"/><path fill-rule="evenodd" clip-rule="evenodd" d="M50.786 17.477s-4.939 14.757-5.334 20.877c-.395 6.119-.432 8.685 5.56 11.693 5.992 3.008 15.682 2.53 18.375-2.385 2.692-4.916 5.913-24.117 5.913-24.117s-15.813-9.295-24.514-6.068z" fill="#F7C099"/><path fill-rule="evenodd" clip-rule="evenodd" d="M48.379 25.216c-1.8-1.206-4.099-1.492-5.65.257-1.365 1.532.546 3.966 2.945 5.25a8 8 0 001.091.476c.474-1.998 1.059-4.068 1.614-5.983z" fill="#F7C099"/><path fill-rule="evenodd" clip-rule="evenodd" d="M45.265 30.491c.135.083.272.157.41.232a8 8 0 001.09.476c.301-1.27.65-2.57 1.01-3.834a3.507 3.507 0 00-1.01-.281c-2.025-.248-2.491 1.859-1.48 3.412l-.02-.005z" fill="#F29877"/><path fill-rule="evenodd" clip-rule="evenodd" d="M73.768 31.765c2.848-1.77 7.42-1.595 8.367 1.984.583 2.166-2.479 3.588-5.445 3.674a7.696 7.696 0 01-3.928-.932c.38-1.603.704-3.224 1.01-4.743l-.004.017z" fill="#F7C099"/><path fill-rule="evenodd" clip-rule="evenodd" d="M77.201 37.396l-.51.027a7.696 7.696 0 01-3.93-.932l.035-.145.143-.601.087-.37.055-.228.033-.14.053-.224.09-.378.034-.145.018-.075.035-.15c.961-.62 2.473-1.269 4.112-.69 2.088.75 1.526 3.035-.209 4.057l-.046-.006z" fill="#F29877"/><path fill-rule="evenodd" clip-rule="evenodd" d="M50.307 30.272s-1.09-1.702-2.824-1.932c-1.734-.23-1.172 1.485.837 2.147 2.008.662 2.398.267 1.981-.217l.006.002zm18.206 4.368s2.023-1.47 4.163-.795c2.14.675.718 2.448-1.941 2.147-2.66-.3-2.926-.99-2.222-1.352z" fill="#F4846E"/><path fill-rule="evenodd" clip-rule="evenodd" d="M50.786 17.477s-.358 1.056-.887 2.717c2.64-.126 9.203-.323 13.876.506 5.01.906 9.468 5.452 10.8 6.9.448-2.432.727-4.064.727-4.064s-15.815-9.286-24.516-6.06z" fill="#F29877"/><path fill-rule="evenodd" clip-rule="evenodd" d="M74.673 26.389s3.16-4.819 1.647-8.138c-1.513-3.32-7.606-6.694-16.918-6.652-9.311.043-14.038-.16-16.438-2.97-2.401-2.81-.17-5.325-.17-5.325s-5.06.318-5.502 3.8c-.442 3.482 3.508 5.063 3.508 5.063-.774.298-1.69.412-2.639.327a7.133 7.133 0 01-2.71-.802c-3.082-1.524-2.619-3.136-2.619-3.136s-4.801 6.068.583 10.05c4.432 3.291 11.455 2.744 16.854 1.36 8.216-2.116 21.086-2.387 24.399 6.445l.005-.022zM44.063 37.69c-.86 1.188-2.704 3.943-3.204 6.335-.366 2.046-.208 4.186.465 6.319 0 0 .065 1.968-1.119 2.904-.703.563-1.658.934-2.748 1.07.857.427 1.778.767 2.733 1.01 1.23.258 2.614-.532 2.614-.532s.014 2.38-6.043 2.794c-6.057.415-8.171-.68-8.171-.68s1.665 5.086 7.496 6.733c5.83 1.647 9.333 1.485 9.333 1.485a10.4 10.4 0 01-2.726.773 14.21 14.21 0 01-2.104-.002s6.03 2.418 16.231-.184c10.2-2.601 10.887-9.18 10.887-9.18.157.89.204 1.775.139 2.645a5.733 5.733 0 01-.416 1.585c2.03-.478 3.64-1.488 4.55-2.855 1.608-2.324 1.49-3.674 1.49-3.674.543.64 1.193 1.24 1.932 1.78 1.086.754 2.917.72 2.917.72a21.086 21.086 0 01-1.04-4.604 22.276 22.276 0 01-.048-5.273c-2.985.113-6.09-.325-9.033-1.274a26.375 26.375 0 01-5.01-2.186c-3.174 7.883-11.139 4.685-9.536 1.53l-3.52-.505s.572 2.84-2.637 1.82c-2.707-.865-1.6-7.01-1.193-8.895-.706.143-1.48.261-2.263.354l.023-.013z" fill="#42231E"/><path fill-rule="evenodd" clip-rule="evenodd" d="M44.063 37.69c-.2.273-.453.63-.727 1.048l2.726-.147c.118-.5.177-.946.238-1.261-.706.143-1.481.261-2.263.354l.026.006zM77.15 47.963c.028-.458.071-.837.1-1.1-2.992.114-6.104-.325-9.052-1.278a26.375 26.375 0 01-5.01-2.186 9.19 9.19 0 01-.461 1.009 35.55 35.55 0 008.1 2.71c2.087.513 4.218.804 6.32.862l.003-.017z" fill="#301A16"/><path fill-rule="evenodd" clip-rule="evenodd" d="M54.348 32.431s-1.731-2.396-8.51-2.482c-6.78-.085-9.982.882-13.973-1.262-3.99-2.143-1.554-5.19.297-5.28a7.954 7.954 0 013.243.505s-3.155-2.038-5.917-1.11c-2.762.927-2.854 3.754-2.854 3.754a5.425 5.425 0 01-1.311-.965 3.309 3.309 0 01-.53-1.314c-.632.704-1.013 1.528-1.116 2.412-.103.885.076 1.808.522 2.704.43.898 1.168 1.738 2.14 2.432.973.695 2.143 1.22 3.393 1.52a4.186 4.186 0 01-1.64.336 11.106 11.106 0 01-1.318-.113s2.41 2.57 10.402 4.007c7.992 1.435 15.92-2.304 15.92-2.304s6.728 7.734 15.102 10.314 12.987.564 12.987.564l-2.697-1.247s7.031 1.152 9.668-.269c2.637-1.42 2.616-2.948 2.616-2.948l-3.348.789c1.049-1.264 1.508-2.784 1.32-4.378-.34-2.591-2.771-3.627-2.771-3.627s2.812 6.151-4.964 5.96c-.384-.012-.77-.042-1.156-.09-2.839-.338-6.227-1.592-9.001-2.94-4.956-2.415-9.406-5.289-16.523-4.972l.02.005z" fill="#42231E"/><path d="M44.31 32.562a.157.157 0 00.088-.081.13.13 0 00-.007-.111.244.244 0 00-.1-.097.356.356 0 00-.15-.044c-1.564-.074-3.07.154-4.64.106a21.53 21.53 0 01-4.95-.71 19.358 19.358 0 01-3.994-1.564c-1.309-.747-2.391-1.69-3.15-2.742-.051-.063-.177-.042-.143.04 1.152 2.004 3.902 3.821 6.61 4.71a20.22 20.22 0 005.307.937c1.712.096 3.734.078 5.13-.444zm39.074 9.562c-2.046.122-3.923.322-6.067.06a20.706 20.706 0 01-5.88-1.608c-3.567-1.579-6.259-4.069-9.917-5.544-.135-.055-.233.075-.1.134 4.062 1.734 6.832 4.743 10.968 6.392 3.386 1.346 8.114 2.086 11.246.959.326-.1.056-.409-.25-.393zm-8.766 2.083a20.12 20.12 0 01-4.476-.978 25.533 25.533 0 01-3.856-1.949 31.475 31.475 0 01-3.276-2.094c-.96-.743-1.491-1.681-2.511-2.373a.112.112 0 00-.057-.019.081.081 0 00-.053.014.04.04 0 00-.017.038c.002.015.013.03.029.041 1.021.855 1.571 1.88 2.66 2.733a43.894 43.894 0 003.776 2.686c2.124 1.335 5.204 2.812 7.842 2.38.3-.045.304-.43-.061-.479zm-30.249-9.539c-2.73.185-5.59-.093-8.362-.813-.216-.052-.337.175-.116.26 2.826.968 5.869 1.253 8.619.81.209-.03.053-.28-.141-.257zm-13.278-2.262a10.861 10.861 0 00-2.16-1.074c-.044-.01-.085.022-.05.044.597.471 1.276.886 2.015 1.23a.268.268 0 00.13.02.167.167 0 00.103-.044.094.094 0 00.026-.088.154.154 0 00-.064-.088zm18.145-.82c-1.049-.74-3.022-.615-3.991-.186a.045.045 0 00-.022.025.042.042 0 00.004.032c.005.01.014.02.026.028a.11.11 0 00.042.015 11.18 11.18 0 011.99.115c.576.16 1.162.28 1.751.36a.395.395 0 00.179-.028.218.218 0 00.112-.097.17.17 0 00.007-.135.284.284 0 00-.098-.13zm11.001 7.411c-.76-.896-1.769-1.687-2.949-2.314-.195-.111-.47-.005-.316.17.757.913 1.768 1.722 2.956 2.367.241.118.42-.072.309-.223zm13.108 9.386c.003-.013-.001-.027-.012-.04a.091.091 0 00-.046-.025.091.091 0 00-.053.002c-.015.006-.026.017-.029.03-.562 1.29-.853 2.776.352 4.19a.443.443 0 00.362.115.275.275 0 00.153-.07.159.159 0 00.05-.13c-.257-1.36-.896-2.746-.777-4.072zm-5.195.726c.07-.582.403-1.106.434-1.693l-.057-.013c-.895.683-1.018 2.078-1.069 3.06-.084 1.233.164 2.507.73 3.755.081.172.374.125.382-.021.04-1.1-.272-2.227-.378-3.338a8.213 8.213 0 01-.043-1.75zm-4.765-2.884c-1.956 3.485-2.66 7.387-4.596 10.877-.883 1.707-2.233 3.227-3.982 4.48-1.799 1.234-3.974 1.87-6.182 2.673-.323.113-.028.457.301.433 4.961-.36 8.642-3.486 10.404-6.493 2.185-3.713 2.345-8.046 4.349-11.817.076-.153-.221-.289-.294-.153zm1.006 4.438c-.494 1.688-.033 3.514-.372 5.229-.406 1.746-1.36 3.341-2.797 4.673a.113.113 0 00-.032.107c.009.04.037.078.08.108.042.03.096.05.15.055a.26.26 0 00.148-.026c1.625-1.07 2.699-2.514 3.091-4.157.496-1.92-.314-3.982.057-5.912.007-.03-.003-.062-.029-.09a.211.211 0 00-.107-.06.21.21 0 00-.123.005c-.035.014-.059.038-.066.068zm-9.855.377a.242.242 0 00-.1-.099.355.355 0 00-.154-.044.274.274 0 00-.144.03.141.141 0 00-.074.09c-.16 3.516-1.185 6.957-5.163 8.895-1.803.884-3.989 1.36-6.331 1.375a19.313 19.313 0 01-6.986-1.285.118.118 0 00-.062-.007.067.067 0 00-.045.025.043.043 0 00-.004.043c.007.015.021.03.04.039 4.463 2.195 10.154 2.277 14.013.469 3.922-1.877 6.268-5.761 5.01-9.53zm-7.383-2.558a.161.161 0 00-.029-.069.247.247 0 00-.061-.06.353.353 0 00-.181-.06.26.26 0 00-.167.043.127.127 0 00-.054.123 3.766 3.766 0 01-.65 2.736c-.553.774-1.444 1.245-2.16 1.906-.117.102.03.327.257.283 2.52-.534 3.344-3.1 3.045-4.902z" fill="#633A36"/><path d="M46.853 56.183c-.143.152.193.352.398.28 2.943-1.065 2.399-4.16 2.377-6.308a11.066 11.066 0 01-.81 3.413 8.876 8.876 0 01-1.965 2.615zm-3.103-8.781c-.165-1.742-.302-3.376.324-4.995.033-.14-.26-.233-.342-.118-1.022 1.474-1.47 3.363-.492 5.14a.267.267 0 00.123.117.381.381 0 00.188.04.248.248 0 00.156-.058.133.133 0 00.043-.126zm.738-.076c-.024.904.024 1.817.145 2.735.015.106.254.148.266.04.119-.906.166-1.824.141-2.75-.007-.253-.546-.279-.552-.025zm12.28 3.209c-.188 1.218-.446 2.418-.64 3.634-.032.137.287.263.36.123a6.98 6.98 0 00.572-3.715c-.012-.12-.278-.16-.292-.042zm-16.806 8.817c1.292-.02 2.516-.244 3.586-.658.24-.078-.018-.352-.257-.279-1.1.29-2.239.523-3.407.7-.164.035-.116.232.078.237zm12.402-10.78c.009-.634.017-1.263.058-1.889a.136.136 0 00-.048-.093.256.256 0 00-.114-.06.256.256 0 00-.13.002.136.136 0 00-.084.062c-.23.624-.215 1.31.047 1.988.05.128.273.093.271-.01zm-2.284-.778a1.9 1.9 0 00-.009 1.063c.1.363.298.72.584 1.05.114.115.401.095.363-.053-.089-.337-.26-.665-.359-1.013-.099-.349-.136-.673-.237-1.013a.152.152 0 00-.063-.077.247.247 0 00-.112-.04.205.205 0 00-.11.017.103.103 0 00-.057.066zm14.852 1.183c.416-.694.721-1.43.91-2.197.053-.22-.401-.318-.483-.115a7.923 7.923 0 00-.744 2.204.1.1 0 00.023.085.203.203 0 00.093.062c.038.013.08.016.117.009a.132.132 0 00.084-.048zM32.422 59.41c-.085-.066-.21.006-.146.077 1.04 1.119 2.206 2.328 3.867 3.01a.36.36 0 00.174.027.225.225 0 00.138-.058.126.126 0 00.036-.117.204.204 0 00-.083-.119c-1.205-1.019-2.742-1.824-3.986-2.82zm26.705 2.871c-.31.589-.797 1.105-1.429 1.517-.115.09.042.307.236.256.463-.142.844-.378 1.103-.683.26-.306.388-.67.372-1.055.004-.106-.24-.127-.282-.035zm4.49-47.947c2.212.427 4.516.635 6.545 1.64 1.806.892 2.533 1.993 3.007 3.427-.01.04.12.061.134.032.593-1.168-.749-2.743-2.071-3.632-2.11-1.428-5.068-1.916-7.627-1.873-.274-.005-.343.34.012.406zm-2.986 2.322c2.46.008 4.721-.054 7.177.932a.269.269 0 00.133.008.151.151 0 00.095-.055.098.098 0 00.011-.093.179.179 0 00-.077-.087c-2.247-1.103-5.243-1.916-7.563-1.204a.235.235 0 00-.124.118.195.195 0 00.005.16.35.35 0 00.132.143c.061.04.135.067.211.078zm11.306 3.688c-.15-.078-.364.03-.278.152.198.297.481.578.683.862.201.285.379.614.555.92a.242.242 0 00.104.085c.045.02.096.03.144.027a.213.213 0 00.122-.041.113.113 0 00.045-.092c-.014-.35-.146-.707-.385-1.04a3.21 3.21 0 00-.99-.873zm-27.11-6.67c1.926.78 4.057 1.1 6.04.908.34-.045.321-.476-.076-.533-1.84-.265-3.59-.341-5.399-.941-1.695-.565-3.408-1.426-4.33-2.642-.078-.097-.25-.022-.185.072.828 1.292 2.23 2.404 3.95 3.136zm-1.197 5.052c3.708.327 8.25-.08 10.917-1.684.267-.16-.094-.566-.436-.485-1.424.331-2.77.787-4.281 1.036a26.54 26.54 0 01-4.878.38c-3.512-.054-7.96-.811-9.262-3.77-.053-.119-.324-.109-.293.014.76 2.751 4.84 4.21 8.232 4.51z" fill="#633A36"/><path d="M48.187 15.872c-1.764-.135-3.353-.043-5.152-.396-.185-.044-.29.14-.099.218 1.69.698 3.848 1.158 5.506.689.34-.1.081-.482-.255-.511zm8.109-1.552a7.27 7.27 0 002.17-.303.131.131 0 00.076-.065.105.105 0 00-.004-.092.2.2 0 00-.083-.08.29.29 0 00-.126-.036 7.76 7.76 0 00-2.166.173c-.281.05-.194.418.133.402z" fill="#633A36"/><path fill-rule="evenodd" clip-rule="evenodd" d="M63.576 21.795c.338-.344.82-.596 1.39-.728a4.57 4.57 0 011.848-.022c2.207.421 1.844 2.548 1.844 2.548l-5.082-1.798zm-10.806-.72c.082-.32.275-.607.564-.836a2.56 2.56 0 011.093-.479c1.388-.177 2.757 1.053 2.757 1.053s-4.406.23-4.4.265l-.013-.003z" fill="#42231E"/><path fill-rule="evenodd" clip-rule="evenodd" d="M63.123 26.712s-.01 2.675 1.709 3.315c1.718.64 2.52-2.345 2.52-2.345s-1.297 1.809-2.51 1.285c-1.215-.525-1.647-2.135-1.717-2.264l-.002.01zm-12.42-2.759s-.01 2.675 1.71 3.31c1.72.635 2.52-2.344 2.52-2.344s-1.291 1.814-2.512 1.288c-1.22-.526-1.645-2.14-1.716-2.263l-.002.009z" fill="#46231F"/><path fill-rule="evenodd" clip-rule="evenodd" d="M50.75 38.047s.063 2.886 2.063 3.129c2 .242 3.072-2.149 3.072-2.149s.548 3.842-2.415 3.604c-2.963-.239-3.453-2.995-2.718-4.589l-.002.005z" fill="#8C523D"/><path fill-rule="evenodd" clip-rule="evenodd" d="M45.066 20.978c2.137.081 4.287.248 6.438.502 1.913.234 3.811.695 5.616 1.364l-.238 1.256a8.684 8.684 0 011.856.171 8.675 8.675 0 011.799.64c.122-.59.3-1.168.531-1.73 0 0 6.552.733 9.534 1.402 2.982.67 4.956 1.11 4.956 1.11l-.328 1.38 2.06.386-.748 2.565-1.43-.803-1.46 3.913s-2.17.047-6.734-.9a30.758 30.758 0 01-7.08-2.245s.119-2.12.51-4.195a8.466 8.466 0 00-1.852-.699 10.822 10.822 0 00-1.748-.145l-.797 4.154s-5.142-.523-7.212-.782a18.063 18.063 0 01-2.846-.508c-.642-2.292-.918-4.586-.82-6.834l-.007-.002zm17.394 3.596s3.931.436 6.214.88a45.26 45.26 0 014.442 1.118l-1.586 5.47a102.573 102.573 0 01-7.049-1.472 38.728 38.728 0 01-3.131-.974s1.148-5.013 1.097-5.025l.013.003zm-15.75-2.45c1.673.02 3.361.122 5.053.308 1.278.142 2.552.41 3.786.796l-.58 5.054-7.972-1.069s-.598-4.17-.28-5.087l-.006-.001z" fill="#42231E"/><path fill-rule="evenodd" clip-rule="evenodd" d="M57.341 25.142s-2.55 3.724-4.602 5.483a26.642 26.642 0 01-4.656 3.072 43.71 43.71 0 006.586 1.098c3.34.263 3.77-.131 3.77-.131s1.61-4.774-1.1-9.541l.002.019z" fill="#E57373"/><path d="M2.468 31.807l-.629-.261a12.878 12.878 0 00-1.53-.363 1.575 1.575 0 00-.724.023c-.2.063-.33.175-.363.315-.033.14.032.298.183.444.152.146.378.27.636.346a12.98 12.98 0 001.53.363c.223.052.462.03.68.049.244.036.478.024.662-.034.138-.04.228-.116.25-.21.023-.095-.023-.203-.128-.3-.123-.148-.324-.28-.567-.372z" fill="#DA2D57"/></g><path d="M124 43V22h18v3h3v6h-3v3h3v6h-3v3h-18zm6-12h9v-6h-9v6zm0 9h9v-6h-9v6zm21 3v-3h-3v-3h3v-3h12v-3h-12v-3h15v3h3v12h-18zm3-3h9v-3h-9v3zm27-9h3v3h-3v9h-6V28h6v3zm12-3v3h-9v-3h9zm6 15v-3h-3V22h6v6h12v3h3v9h-3v3h-15zm3-3h9v-9h-9v9zm21 3v-3h-3v-9h3v-3h15v3h3v6h-15v3h12v3h-15zm3-9h9v-3h-9v3zm27-3h3v3h-3v9h-6V28h6v3zm12-3v3h-9v-3h9zm3 15v-3h15v-3h-12v-3h-3v-3h3v-3h15v3h-12v3h12v3h3v3h-3v3h-18zm24 0V22h6v6h12v3h3v12h-6V31h-9v12h-6zm27 0v-3h-3v-9h3v-3h15v3h3v9h-3v3h-15zm3-3h9v-9h-9v9zm18 6V28h18v3h3v6h-3v3h-12v6h-6zm6-9h9v-6h-9v6z" fill="#fff"/><defs><clipPath id="clip0_8_237"><path fill="#fff" transform="rotate(13.339 42.147 63.908)" d="M0 0h99.776v68.837H0z"/></clipPath></defs></svg>