<svg width="40" height="40" fill="none" xmlns="http://www.w3.org/2000/svg"><path fill-rule="evenodd" clip-rule="evenodd" d="M5.152 15.542a39.328 39.328 0 0020.375 19.795l.028.012 1.744.778a5.137 5.137 0 006.257-1.686l2.91-4.03a.572.572 0 00-.104-.78l-5.081-4.1a.57.57 0 00-.817.104l-1.978 2.67a1.712 1.712 0 01-2.082.54 30.582 30.582 0 01-15.232-15.24 1.714 1.714 0 01.54-2.084l2.668-1.979a.571.571 0 00.105-.817l-4.1-5.085a.57.57 0 00-.778-.104L5.557 6.46a5.143 5.143 0 00-1.67 6.297l1.264 2.78.001.004zm19.023 22.944A42.755 42.755 0 012.038 16.969l-.003-.006-1.266-2.787A8.572 8.572 0 013.552 3.682L7.602.757a3.995 3.995 0 015.45.731l4.099 5.085a4 4 0 01-.731 5.723l-1.529 1.134a27.166 27.166 0 0011.687 11.694l1.134-1.53a3.995 3.995 0 015.72-.731l5.08 4.101a4 4 0 01.73 5.455l-2.91 4.03a8.561 8.561 0 01-10.427 2.809l-1.73-.772z" fill="#000"/></svg>