<svg width="80" height="80" fill="none" xmlns="http://www.w3.org/2000/svg"><path d="M39.986 6.667c-18.428 0-33.32 14.918-33.32 33.32 0 14.122 8.776 26.189 21.172 31.043-.302-2.633-.549-6.692.11-9.571.603-2.605 3.893-16.564 3.893-16.564s-.987-2.002-.987-4.936c0-4.635 2.688-8.09 6.033-8.09 2.852 0 4.224 2.139 4.224 4.69 0 2.851-1.81 7.13-2.77 11.106-.795 3.318 1.673 6.033 4.936 6.033 5.924 0 10.476-6.252 10.476-15.247 0-7.98-5.732-13.548-13.931-13.548-9.489 0-15.056 7.103-15.056 14.453 0 2.852 1.097 5.923 2.468 7.596.275.329.302.63.22.96-.247 1.042-.823 3.318-.933 3.784-.137.604-.493.74-1.124.439-4.114-1.975-6.691-8.063-6.691-12.944 0-10.503 7.623-20.156 22.02-20.156 11.546 0 20.541 8.227 20.541 19.251 0 11.49-7.24 20.732-17.277 20.732-3.373 0-6.554-1.755-7.624-3.839l-2.084 7.925c-.74 2.907-2.77 6.527-4.14 8.749 3.125.96 6.416 1.48 9.872 1.48 18.4 0 33.32-14.918 33.32-33.32-.028-18.428-14.947-33.346-33.348-33.346z" fill="#fff"/></svg>