<svg width="80" height="80" fill="none" xmlns="http://www.w3.org/2000/svg"><path fill-rule="evenodd" clip-rule="evenodd" d="M73.333 40c0 18.41-14.923 33.333-33.333 33.333C21.59 73.333 6.667 58.41 6.667 40 6.667 21.59 21.59 6.667 40 6.667 58.41 6.667 73.333 21.59 73.333 40zm-32.139-8.725c-3.242 1.348-9.722 4.14-19.439 8.373-1.578.628-2.404 1.242-2.48 1.842-.127 1.014 1.144 1.414 2.873 1.958.236.074.48.15.73.231 1.701.554 3.99 1.201 5.181 1.227 1.08.023 2.285-.422 3.615-1.335 9.08-6.13 13.766-9.227 14.06-9.294.208-.047.495-.106.69.067.195.173.176.501.155.59-.126.536-5.112 5.172-7.693 7.571a90.934 90.934 0 00-1.491 1.4c-.262.271-.528.528-.784.774-1.581 1.525-2.767 2.668.066 4.534a262.92 262.92 0 013.537 2.38c1.186.807 2.37 1.613 3.901 2.617.39.256.763.522 1.126.78 1.381.985 2.622 1.87 4.155 1.728.89-.081 1.81-.919 2.278-3.417 1.104-5.903 3.275-18.694 3.776-23.965a5.882 5.882 0 00-.055-1.312c-.045-.26-.137-.63-.475-.903-.399-.324-1.016-.392-1.291-.387-1.254.022-3.178.69-12.435 4.54z" fill="#fff"/></svg>