<svg width="80" height="80" fill="none" xmlns="http://www.w3.org/2000/svg"><path d="M40.126 10.968c-16.467 0-29.869 12.907-29.874 28.77a27.894 27.894 0 003.987 14.385L10 69.033l15.838-4.001a30.755 30.755 0 0014.276 3.503h.012c16.467 0 29.868-12.91 29.874-28.773.004-7.684-3.1-14.917-8.743-20.354-5.64-5.438-13.14-8.438-21.131-8.44zm0 52.707h-.01a25.507 25.507 0 01-12.639-3.333l-.91-.519-9.394 2.373 2.508-8.826-.59-.904a23.193 23.193 0 01-3.798-12.727C15.3 26.552 26.44 15.828 40.136 15.828 46.766 15.83 53 18.32 57.69 22.84c4.69 4.52 7.27 10.529 7.266 16.92-.006 13.186-11.144 23.915-24.832 23.915h.002zm13.62-17.913c-.747-.358-4.417-2.098-5.102-2.34-.683-.238-1.18-.362-1.678.358-.496.72-1.928 2.34-2.361 2.818-.438.48-.873.538-1.62.18-.748-.36-3.153-1.119-6.002-3.569-2.22-1.905-3.718-4.258-4.154-4.98-.435-.718-.046-1.107.327-1.465.335-.32.747-.838 1.119-1.258.371-.42.495-.72.747-1.2.248-.478.124-.9-.064-1.258-.188-.362-1.678-3.9-2.303-5.338-.604-1.402-1.22-1.214-1.678-1.237-.436-.02-.931-.025-1.433-.025-.493 0-1.304.18-1.99.9-.682.72-2.612 2.458-2.612 5.996 0 3.54 2.675 6.958 3.048 7.438.374.478 5.265 7.742 12.753 10.858 1.78.737 3.17 1.18 4.256 1.514 1.789.547 3.416.468 4.702.284 1.432-.207 4.416-1.738 5.036-3.416.623-1.678.623-3.118.437-3.418-.182-.3-.681-.48-1.428-.842z" fill="#fff"/></svg>